<svg width="180" height="180" xml:space="preserve" xmlns="http://www.w3.org/2000/svg"><g style="opacity:.95"><path style="opacity:1;fill:#ff6613;fill-opacity:1;stroke-width:1.04026" d="M14.444 20.128v138.236L132.982 44.306c.947-.95 1.958-.534 2.642.09.954.87 1.116 1.945.481 2.774-15.152 20.021-29.257 39.918-43.234 60.335-.584 1.01-2.603.77-3.238-.109L86.2 102.67c-.71-.977-2.042-.888-2.647-.301-25.873 25.078-52.251 49.827-76.878 75.715l13.321-6.564s2.21 2.364 4.736 3.717c3.02 1.618 7.615 1.851 7.615 1.851H80.83c25.708 0 52.304-13.841 67.785-33.924 23.238-30.144 17.502-64.106 17.502-64.106l-50.316 49.511c2.89 3.777 2.185 10.459-1.82 15.843-3.397 4.427-7.396 8.349-11.096 12.522-.827 1.008-2.667 2.162-4.394.666-1.03-.892-1.21-2.74.021-3.97l9.027-10.353c.866-1.038-.153-2.72-.87-3.454-1.093-1.122-2.954-1.547-3.845-.428l-9.447 10.179c-1.029 1.029-3.025.834-4.07-.2-.965-.957-1.243-3.011-.233-4.022l10.705-9.616c.82-.885.384-2.465-.68-3.536-1.9-1.911-2.869-1.485-3.67-.814-3.69 3.092-10.762 9.497-10.762 9.497-.735.735-2.697.55-3.587-.468-.941-1.076-.78-3.02-.341-3.46l12.333-11.304c7.146-5.225 12.624-5.136 17.453-2.98l64.123-64.368-11.212 6.33c-5.647-18.138-15.462-35.124-37.742-49.532L64.716 76.523c2.226 4.174 2.312 8.617-.19 13.387l-11.292 13.533c-7.124 4.27-13.418 3.256-19.055-1.95-3.74-4.204-5.28-9.053-4.05-14.713 1.931-6.802 14.636-15.385 18.456-16.896 1.686-.943 6.833-1.079 10.299.722l65.095-66.958-9.636 5.5C105.81 5.29 93.35 1.454 74.104 1.78l-41.46.042c-9.92 0-18.2 8.073-18.2 18.307z"/></g></svg>