<svg width="117mm" height="115mm" viewBox="47 92 117 115" xml:space="preserve" xmlns="http://www.w3.org/2000/svg"><g style="display:inline;fill:#f58015;fill-opacity:1"><path style="opacity:1;fill:#f58015;fill-opacity:1;stroke-width:.264583" d="m80.16 110.199-3.188-5.202c-14.81 9.68-23.693 23.695-24.718 43.454l6.418.053c.475-18.412 9.429-29.668 21.488-38.305zm-27.952 40.193c.955 15.268 5.768 29.999 24.56 43.522l3.392-5.283c-16.246-11.652-20.71-24.756-21.43-38.322zM78.6 194.956c18.067 10.89 38.009 9.701 53.07 0l-2.76-5.108c-15.742 8.037-31.456 8.503-47.136-.208zm54.84-1.067c12.635-8.09 23.585-19.46 25.036-43.605l-6.557.093c-.646 17.177-8.697 29.355-21.43 38.373zm18.554-45.435 6.508.052c-.878-21.223-10.984-33.925-24.409-43.563l-3.35 5.384c10.68 8.101 20.155 17.746 21.251 38.127zm-22.928-39.19 3.261-5.35c-20.465-10.904-37.76-8.504-53.616-.07l3.16 5.165c14.519-7.4 29.901-9.47 47.195.255z"/></g><g style="fill:#ffb603;fill-opacity:1"><path style="opacity:1;fill:#ffb603;fill-opacity:1;stroke-width:.264583" d="m81.267 112.136 22.782 36.632L61 148.561c.573-16.53 7.673-28.427 20.266-36.425zM60.97 150.38c.561 17.9 8.948 28.5 20.15 36.47l3.707-6.18c-5.553-.651-1.43-7.471 1.974-3.27l16.636-26.915zm21.994 36.987 22.254-36.369 14.723 24.06c-6.967.442-1.212 8.015 1.9 3.139l6.062 9.81c-20.095 9.394-33.39 6.016-44.939-.64zm46.404-.523-22.13-36.316 42.491-.173c-.583 14.068-6.339 26.547-20.36 36.489zm20.383-38.409c-.93-12.98-4.64-25.526-20.36-36.196l-3.5 5.88c5.86.4.604 8.01-1.825 3.112l-16.824 27.32zm-21.865-37.19-22.142 36.735-14.92-24.137c6.183-.998.652-8.094-1.855-2.996l-5.943-9.822c14.696-7.615 29.623-8.326 44.86.22z"/></g><g style="fill:#ce0e17;fill-opacity:1"><circle style="opacity:1;fill:#ce0e17;fill-opacity:1;stroke-width:.264583" cx="75.798" cy="127.172" r="3.27"/><circle style="opacity:1;fill:#ce0e17;fill-opacity:1;stroke-width:.264583" cx="68.005" cy="139.703" r="1.419"/><circle style="opacity:1;fill:#ce0e17;fill-opacity:1;stroke-width:.264583" cx="74.467" cy="153.426" r="2.122"/><circle style="opacity:1;fill:#ce0e17;fill-opacity:1;stroke-width:.264583" cx="90.3" cy="159.297" r="1.366"/><circle style="opacity:1;fill:#ce0e17;fill-opacity:1;stroke-width:.264583" cx="115.483" cy="155.271" r="1.926"/><circle style="opacity:1;fill:#ce0e17;fill-opacity:1;stroke-width:.264583" cx="104.461" cy="170.973" r="1.765"/><circle style="opacity:1;fill:#ce0e17;fill-opacity:1;stroke-width:.264583" cx="104.328" cy="184.134" r="1.94"/><circle style="opacity:1;fill:#ce0e17;fill-opacity:1;stroke-width:.264583" cx="134.816" cy="172.374" r="2.938"/><circle style="opacity:1;fill:#ce0e17;fill-opacity:1;stroke-width:.264583" cx="132.072" cy="160.866" r="2.005"/><circle style="opacity:1;fill:#ce0e17;fill-opacity:1;stroke-width:.264583" cx="139.512" cy="135.002" r="2.927"/><circle style="opacity:1;fill:#ce0e17;fill-opacity:1;stroke-width:.264583" cx="120.096" cy="139.597" r="1.262"/><circle style="opacity:1;fill:#ce0e17;fill-opacity:1;stroke-width:.264583" cx="112.261" cy="115.61" r="2.668"/><circle style="opacity:1;fill:#ce0e17;fill-opacity:1;stroke-width:.264583" cx="100.246" cy="124.341" r="1.245"/><circle style="opacity:1;fill:#ce0e17;fill-opacity:1;stroke-width:.264583" cx="89.334" cy="134.81" r="1.485"/></g><circle style="opacity:1;fill:#fff;fill-opacity:1;stroke-width:.264583" cx="106.029" cy="114.162" r="1.892"/><circle style="opacity:1;fill:#fff;fill-opacity:1;stroke-width:.264583" cx="112.157" cy="121.055" r="1.345"/><circle style="opacity:1;fill:#fff;fill-opacity:1;stroke-width:.264583" cx="105.811" cy="127.829" r="1.543"/><circle style="opacity:1;fill:#fff;fill-opacity:1;stroke-width:.264583" cx="81.593" cy="130.042" r="1.191"/><circle style="opacity:1;fill:#fff;fill-opacity:1;stroke-width:.264583" cx="78.138" cy="137.994" r="2.229"/><circle style="opacity:1;fill:#fff;fill-opacity:1;stroke-width:.264583" cx="94.899" cy="143.737" r="2.041"/><circle style="opacity:1;fill:#fff;fill-opacity:1;stroke-width:.264583" cx="135.781" cy="145.829" r="2.255"/><circle style="opacity:1;fill:#fff;fill-opacity:1;stroke-width:.264583" cx="127.845" cy="136.281" r="1.447"/><circle style="opacity:1;fill:#fff;fill-opacity:1;stroke-width:.264583" cx="142.141" cy="159.379" r="1.457"/><circle style="opacity:1;fill:#fff;fill-opacity:1;stroke-width:.264583" cx="128.749" cy="168.924" r="1.507"/><circle style="opacity:1;fill:#fff;fill-opacity:1;stroke-width:.264583" cx="121.306" cy="164.049" r="1.315"/><circle style="opacity:1;fill:#fff;fill-opacity:1;stroke-width:.264583" cx="109.751" cy="174.555" r="1.426"/><circle style="opacity:1;fill:#fff;fill-opacity:1;stroke-width:.264583" cx="98.19" cy="177.959" r="1.363"/><circle style="opacity:1;fill:#fff;fill-opacity:1;stroke-width:.264583" cx="98.045" cy="183.611" r="2.409"/><circle style="opacity:1;fill:#fff;fill-opacity:1;stroke-width:.264583" cx="70.779" cy="164.246" r="3.042"/><circle style="opacity:1;fill:#fff;fill-opacity:1;stroke-width:.264583" cx="82.119" cy="162.73" r="1.464"/></svg>